<svg id="Capa_2" data-name="Capa 2" xmlns="http://www.w3.org/2000/svg" xmlns:xlink="http://www.w3.org/1999/xlink" viewBox="0 0 1000 1000"><defs><style>.cls-1{fill:#ea899a;}.cls-2{fill:#b2b2b2;}.cls-3{fill:url(#Degradado_sin_nombre_11);}</style><linearGradient id="Degradado_sin_nombre_11" x1="401.96" y1="411.39" x2="598" y2="411.39" gradientUnits="userSpaceOnUse"><stop offset="0.44" stop-color="#ea899a"/><stop offset="0.68" stop-color="#b2b2b2"/></linearGradient></defs><path class="cls-1" d="M347.63,564.45a7.68,7.68,0,0,1-3.81-1L131,441.61a10.08,10.08,0,0,1-4.76-8.15,10.61,10.61,0,0,1,3.61-8.91L332.74,258.62c3.88-3.17,9.24-2.1,12,2.39s1.81,10.71-2.06,13.88L151.6,431.17,351.44,545.56c4.26,2.44,6,8.41,3.9,13.34A8.57,8.57,0,0,1,347.63,564.45Z"/><path class="cls-1" d="M621,569a8.63,8.63,0,0,1-7.84-5.87c-2-5,0-10.91,4.31-13.17L820.71,443.84l-186.16-164a11,11,0,0,1-1.63-13.95c2.87-4.38,8.26-5.22,12-1.9L842.61,438.12a10.69,10.69,0,0,1,3.33,9.05,9.94,9.94,0,0,1-5,7.95l-216.38,113A7.53,7.53,0,0,1,621,569Z"/><path class="cls-1" d="M191.78,698.23a32.17,32.17,0,0,1-20.24-6.64q-8.61-6.63-13.28-18.65t-4.68-28.39a90.86,90.86,0,0,1,1.19-13.82,86.93,86.93,0,0,1,3.87-15.24,56.05,56.05,0,0,1,7.16-14,36.4,36.4,0,0,1,11-10.22,29,29,0,0,1,15.28-3.91,33.26,33.26,0,0,1,13.18,2.42A35.74,35.74,0,0,1,215,595.9a42.07,42.07,0,0,1,6.83,7.63,61.55,61.55,0,0,1,4.35,7.25q1.62,3.29,2.38,4.77l-13.84,13.76a82.78,82.78,0,0,0-5-10,27.85,27.85,0,0,0-7.07-8.12A16.58,16.58,0,0,0,192.26,608a15.39,15.39,0,0,0-10.6,3.72,26,26,0,0,0-6.64,9.42,49,49,0,0,0-3.39,12.08,79.9,79.9,0,0,0-.95,11.84,69.27,69.27,0,0,0,.95,11.53,36.47,36.47,0,0,0,3.3,10.41,19.59,19.59,0,0,0,6.3,7.5,16.92,16.92,0,0,0,10,2.79q6.67,0,10.93-3.1a24,24,0,0,0,7.12-8.74,94.73,94.73,0,0,0,5.35-13.2l15.66,9.17A105.79,105.79,0,0,1,220.82,681a40.13,40.13,0,0,1-12.32,12.76A30.65,30.65,0,0,1,191.78,698.23Z"/><path class="cls-2" d="M274.21,698Q265,698,259,694.2a27.45,27.45,0,0,1-9.6-10.42,55.13,55.13,0,0,1-5.35-15.3,128,128,0,0,1-2.29-18.6q-.53-9.92-.52-20.08,0-11.52.57-22.49t1.24-18.41l17.57,1.36q-.94,9.06-1.48,16.18t-.71,13.45q-.19,6.32-.19,13c0,3.47,0,7.21.14,11.22s.38,8,.86,11.9a55.47,55.47,0,0,0,2.29,10.66,19.13,19.13,0,0,0,4.49,7.68,10.12,10.12,0,0,0,7.5,2.92,11.29,11.29,0,0,0,8.07-2.92,19.07,19.07,0,0,0,4.82-7.81,52.75,52.75,0,0,0,2.49-10.9,120,120,0,0,0,.9-12.27q.15-6.27.15-11.84,0-10.53-.48-20.45T288.25,590l17.57-1.74q.76,11.9,1.15,21.75t.38,18.16q0,11.28-.62,21.69A125.54,125.54,0,0,1,304.2,669a55.71,55.71,0,0,1-5.54,15.25,26.69,26.69,0,0,1-9.6,10.1Q283.09,698,274.21,698Z"/><path class="cls-1" d="M347.27,697.48q-.66-10.79-.91-21t-.24-19.21q0-15,.48-27t1-20.64q-8.22.63-15.95,1.61a133,133,0,0,0-14.33,2.61l.19-20.7a178.44,178.44,0,0,1,22.92-3.78,234.19,234.19,0,0,1,23.5-1.18q8.4,0,16.09.5t14.76,1.48l-.1,21.45a112.25,112.25,0,0,0-14.47-1.92q-7.79-.57-15.9-.56-.48,8.43-.86,18.78T363,650.13q0,10.54.43,22.19t1.1,24.54Z"/><path class="cls-2" d="M436,697.48a59.41,59.41,0,0,1-13-1.3,21.16,21.16,0,0,1-9.79-5q-4-3.66-6.11-10.72T405,662q0-8.29.67-17.23t1.67-17.29c.67-5.58,1.32-10.55,2-14.94-1.28.25-2.36.5-3.25.75l-1.82-19.71A109.16,109.16,0,0,1,415,591.69q6.15-.81,13.08-1.43t13.8-.93q6.88-.3,12.89-.31c3.19,0,6.1.07,8.75.19s4.82.31,6.54.56l-.77,20.7a43,43,0,0,0-7-.93q-4.39-.31-9.84-.31c-4.26,0-8.82.12-13.65.37s-9.46.54-13.85.87q-.76,5.21-1.34,10.66c-.38,3.63-.73,7.23-1.05,10.78q5.53-1,12.18-1.55t13.22-.87q6.6-.3,11.85-.31c2,0,3.85,0,5.44.07a29.23,29.23,0,0,1,3.92.31l-.39,20.32c-.82-.08-2-.14-3.38-.18s-3.11-.06-5-.06c-2.74,0-5.79.06-9.17.18s-6.86.29-10.46.5-7.08.45-10.46.74-6.43.64-9.16,1.06q-.39,6.93-.39,11.15,0,6.08,1.25,8.92a6.08,6.08,0,0,0,4.15,3.66,29.57,29.57,0,0,0,7.69.81A100.93,100.93,0,0,0,471.53,669l1.05,21.57a113.79,113.79,0,0,1-20.77,5.52A107.18,107.18,0,0,1,436,697.48Z"/><path class="cls-1" d="M542.4,698.23a32.2,32.2,0,0,1-20.25-6.64q-8.6-6.63-13.28-18.65t-4.68-28.39a89.7,89.7,0,0,1,1.2-13.82,86,86,0,0,1,3.86-15.24,56.08,56.08,0,0,1,7.17-14,36.25,36.25,0,0,1,11-10.22,29,29,0,0,1,15.28-3.91,33.23,33.23,0,0,1,13.18,2.42,35.59,35.59,0,0,1,9.74,6.07,42.07,42.07,0,0,1,6.83,7.63,58.93,58.93,0,0,1,4.35,7.25q1.62,3.29,2.39,4.77l-13.85,13.76a81.33,81.33,0,0,0-5-10,27.71,27.71,0,0,0-7.07-8.12A16.58,16.58,0,0,0,542.87,608a15.41,15.41,0,0,0-10.6,3.72,26.09,26.09,0,0,0-6.64,9.42,49.46,49.46,0,0,0-3.39,12.08,81.27,81.27,0,0,0-1,11.84,70.35,70.35,0,0,0,1,11.53,37.11,37.11,0,0,0,3.3,10.41,19.68,19.68,0,0,0,6.3,7.5,16.92,16.92,0,0,0,10,2.79q6.69,0,10.94-3.1a24.17,24.17,0,0,0,7.12-8.74,93.56,93.56,0,0,0,5.34-13.2l15.67,9.17A106.42,106.42,0,0,1,571.43,681a40,40,0,0,1-12.32,12.76A30.59,30.59,0,0,1,542.4,698.23Z"/><path class="cls-2" d="M630.26,696.61a31.9,31.9,0,0,1-16.33-4.27,40.4,40.4,0,0,1-12.7-11.84A58,58,0,0,1,593,663.27a71.58,71.58,0,0,1-2.87-20.45,83.68,83.68,0,0,1,2.29-19.52,62.25,62.25,0,0,1,7-17.48,37.82,37.82,0,0,1,11.9-12.58,30.42,30.42,0,0,1,17-4.71,34,34,0,0,1,17.77,4.52,37.74,37.74,0,0,1,12.42,12.09,56.88,56.88,0,0,1,7.25,17.1,80.53,80.53,0,0,1,2.39,19.59,82.65,82.65,0,0,1-2.77,22.06,57.88,57.88,0,0,1-7.83,17.42,36.69,36.69,0,0,1-12,11.34A30.38,30.38,0,0,1,630.26,696.61Zm0-20.7a17.3,17.3,0,0,0,10.61-3.65q4.86-3.66,7.83-11.47t3-20.33q0-10.79-3.25-17.72a23.9,23.9,0,0,0-8.4-10.29,19.57,19.57,0,0,0-10.8-3.35,18.84,18.84,0,0,0-10.79,3,21.85,21.85,0,0,0-7.07,8,39,39,0,0,0-3.82,11.22,70.45,70.45,0,0,0-1.14,12.77,38.4,38.4,0,0,0,1.91,12.21,35.41,35.41,0,0,0,5.2,10.16,26,26,0,0,0,7.59,6.94A17.7,17.7,0,0,0,630.26,675.91Z"/><path class="cls-1" d="M692.92,698.1l-16-1.86,3.54-85.15a32,32,0,0,0-4.59,1.73L673,591.75q5.06-1.37,12.51-2.85a78.42,78.42,0,0,1,15.38-1.49,48,48,0,0,1,12.41,1.68,41.22,41.22,0,0,1,12.08,5.45,39.16,39.16,0,0,1,10.32,10.1,50.07,50.07,0,0,1,7.16,15.5,79.29,79.29,0,0,1,2.63,21.69q0,17.59-4.35,30.06t-12.61,19q-8.25,6.57-19.91,6.57a34.22,34.22,0,0,1-15.28-3.72C693.17,695.41,693.05,696.86,692.92,698.1Zm7.26-89.86h-2.77q-1,23.06-1.72,39.23t-1.34,27a46.64,46.64,0,0,0,6.35,2.17,28.71,28.71,0,0,0,7.31.93,16.21,16.21,0,0,0,12.46-5.09A30.05,30.05,0,0,0,727.3,659a74.39,74.39,0,0,0,2.1-18.15,42.38,42.38,0,0,0-1.81-13.27,28.71,28.71,0,0,0-4.73-9.05,24.32,24.32,0,0,0-6.35-5.64,30.47,30.47,0,0,0-6.73-3,34.87,34.87,0,0,0-5.88-1.3A34.51,34.51,0,0,0,700.18,608.24Z"/><path class="cls-3" d="M455.94,519.43l-43.4-3.63,9.57-166.23A110.32,110.32,0,0,0,409.7,353L402,311.82q13.68-2.67,33.83-5.57a292.08,292.08,0,0,1,41.59-2.9A178.91,178.91,0,0,1,511,306.61a136.43,136.43,0,0,1,32.67,10.65A98.27,98.27,0,0,1,571.52,337a88.53,88.53,0,0,1,19.37,30.25Q598,385.14,598,409.58q0,34.37-11.76,58.68T552.15,505.4q-22.33,12.83-53.85,12.82A122.71,122.71,0,0,1,457,511Q456.45,515.8,455.94,519.43ZM475.57,344h-7.49q-2.58,45-4.65,76.59t-3.62,52.63A159.46,159.46,0,0,0,477,477.45a104.3,104.3,0,0,0,19.76,1.82q20.92,0,33.7-9.93a55.27,55.27,0,0,0,18.47-26.25,107.13,107.13,0,0,0,5.69-35.45q0-15.24-4.91-25.89a53.13,53.13,0,0,0-12.79-17.67,63.7,63.7,0,0,0-17.17-11,100.13,100.13,0,0,0-18.21-5.92,129.49,129.49,0,0,0-15.89-2.55Q478.67,344,475.57,344Z"/><path class="cls-2" d="M786.9,697.48a59.41,59.41,0,0,1-13-1.3,21.16,21.16,0,0,1-9.79-5q-4-3.66-6.11-10.72T755.86,662q0-8.29.67-17.23t1.67-17.29c.67-5.58,1.32-10.55,1.95-14.94q-1.9.38-3.24.75l-1.82-19.71a109.45,109.45,0,0,1,10.84-1.92q6.17-.81,13.09-1.43c4.61-.41,9.22-.72,13.8-.93s8.88-.31,12.89-.31c3.19,0,6.1.07,8.74.19s4.83.31,6.55.56l-.77,20.7a43,43,0,0,0-7-.93q-4.39-.31-9.84-.31-6.4,0-13.66.37t-13.84.87q-.78,5.21-1.34,10.66c-.38,3.63-.73,7.23-1.05,10.78q5.54-1,12.17-1.55t13.23-.87c4.4-.2,8.34-.31,11.85-.31,2,0,3.85,0,5.44.07a29.23,29.23,0,0,1,3.92.31l-.39,20.32q-1.23-.12-3.39-.18t-5-.06q-4.11,0-9.17.18c-3.38.13-6.86.29-10.46.5s-7.08.45-10.46.74-6.43.64-9.16,1.06q-.39,6.93-.39,11.15c0,4.05.42,7,1.24,8.92a6.12,6.12,0,0,0,4.16,3.66,29.57,29.57,0,0,0,7.69.81A100.93,100.93,0,0,0,822.43,669l1.05,21.57a113.66,113.66,0,0,1-20.78,5.52A107,107,0,0,1,786.9,697.48Z"/></svg>